<?xml version="1.0" encoding="UTF-8"?>
<svg xmlns="http://www.w3.org/2000/svg" id="Layer_1" data-name="Layer 1" viewBox="0 0 24 24">
  <path d="M18.335,15l2.638-5.276-.895-.447-2.862,5.724h-6.241l.971,6.619c.199,1.357,1.384,2.381,2.756,2.381h5.533c1.372,0,2.556-1.023,2.754-2.38l.974-6.62h-5.629Zm3.666,6.475c-.127,.87-.886,1.525-1.765,1.525h-5.533c-.879,0-1.639-.656-1.767-1.527l-.803-5.473h10.672l-.805,5.475ZM15,6c0-3.309-2.691-6-6-6S3,2.691,3,6s2.691,6,6,6,6-2.691,6-6Zm-6,5c-2.757,0-5-2.243-5-5S6.243,1,9,1s5,2.243,5,5-2.243,5-5,5Zm-.192,3l.147,1H4.5c-1.93,0-3.5,1.57-3.5,3.5v5.5H0v-5.5c0-2.481,2.019-4.5,4.5-4.5h4.308Z"/>
</svg>
