<svg id="Layer_1" viewBox="0 0 24 24" xmlns="http://www.w3.org/2000/svg" data-name="Layer 1"><path d="m20.68 11.683c-1.068-1.86-3.328-4.827-7.096-5.5.8-.607 1.832-1.652 2.851-3.435.13-.229.062-.519-.157-.664-.066-.044-1.656-1.084-4.277-1.084s-4.211 1.04-4.277 1.084c-.219.146-.287.436-.157.664 1.019 1.783 2.051 2.828 2.851 3.435-3.768.672-6.028 3.64-7.096 5.5-1.239 2.155-1.624 4.526-1.081 6.676.831 3.297 3.659 4.642 9.761 4.642s8.93-1.345 9.761-4.642c.543-2.149.158-4.521-1.081-6.676zm-11.984-8.99c.58-.271 1.734-.693 3.304-.693s2.724.422 3.304.693c-1.475 2.387-2.883 3.106-3.304 3.277-.421-.171-1.829-.891-3.304-3.277zm12.096 15.421c-.589 2.332-2.31 3.886-8.792 3.886s-8.203-1.554-8.792-3.886c-.478-1.897-.13-4.004.979-5.934 1.103-1.92 3.584-5.14 7.812-5.14s6.71 3.22 7.812 5.14c1.109 1.93 1.457 4.036.979 5.934zm-6.133-1.777c0 1.3-.937 2.381-2.17 2.613l.002.548c0 .277-.21.492-.5.502-.275 0-.499-.223-.5-.498l-.002-.551c-1.166-.226-2.073-1.217-2.152-2.441-.018-.275.191-.514.467-.531.249-.018.513.19.531.467.057.872.786 1.555 1.66 1.555.918 0 1.664-.746 1.664-1.663s-.746-1.664-1.664-1.664c-1.385 0-2.43-.982-2.43-2.285 0-1.137.829-2.087 1.932-2.326l.003-.563c0-.275.225-.498.5-.498h.002c.276 0 .499.227.498.502l-.003.544c.851.156 1.573.734 1.87 1.54.096.259-.037.547-.296.642-.256.098-.546-.036-.642-.296-.206-.558-.765-.932-1.392-.932-.812 0-1.473.622-1.473 1.388 0 .745.602 1.285 1.43 1.285 1.469 0 2.664 1.195 2.664 2.664z"/></svg>