<?xml version="1.0" encoding="UTF-8"?>
<svg xmlns="http://www.w3.org/2000/svg" id="Layer_1" data-name="Layer 1" viewBox="0 0 24 24">
  <path d="m2,11.649v9.851c0,.827.673,1.5,1.5,1.5h8.5v1H3.5c-1.378,0-2.5-1.122-2.5-2.5v-10.558c-.617-.631-1-1.492-1-2.442L2.632,0h18.735l2.633,8.5c0,1.205-.613,2.27-1.543,2.9-.263-.253-.557-.469-.871-.659.812-.396,1.385-1.211,1.412-2.168l-2.366-7.573h-3.633v4h-1V1h-8v4h-1V1h-3.632l-2.367,7.573c.039,1.345,1.145,2.427,2.499,2.427h1c1.378,0,2.5-1.122,2.5-2.5v-.5h1v.5c0,1.378,1.122,2.5,2.5,2.5h3c1.379,0,2.5-1.122,2.5-2.5h1c0,1.93-1.57,3.5-3.5,3.5h-3c-1.28,0-2.39-.698-3-1.726-.61,1.028-1.72,1.726-3,1.726h-1c-.539,0-1.044-.133-1.5-.351Zm19.5,7.351h-5c-1.379,0-2.5,1.122-2.5,2.5v2.5h1v-2.5c0-.827.673-1.5,1.5-1.5h5c.827,0,1.5.673,1.5,1.5v2.5h1v-2.5c0-1.378-1.121-2.5-2.5-2.5Zm.5-4c0,1.654-1.346,3-3,3s-3-1.346-3-3,1.346-3,3-3,3,1.346,3,3Zm-1,0c0-1.103-.897-2-2-2s-2,.897-2,2,.897,2,2,2,2-.897,2-2Z"/>
</svg>
